<mxfile host="app.diagrams.net" agent="Mozilla/5.0 (Windows NT 10.0; Win64; x64) AppleWebKit/537.36 (KHTML, like Gecko) Chrome/134.0.0.0 Safari/537.36" version="26.1.3">
  <diagram name="Page-1" id="yN8HcjbdZoZNJ3mPRwin">
    <mxGraphModel dx="1615" dy="3139" grid="1" gridSize="10" guides="1" tooltips="1" connect="1" arrows="1" fold="1" page="1" pageScale="1" pageWidth="1654" pageHeight="2336" math="0" shadow="0">
      <root>
        <mxCell id="0" />
        <mxCell id="1" parent="0" />
        <mxCell id="wksmj878DORmFLcRhz3W-1" value="GCP" style="html=1;overflow=block;blockSpacing=1;whiteSpace=wrap;fontSize=16.7;fontStyle=1;align=left;spacing=0;strokeColor=#7d8998;strokeOpacity=100;fillOpacity=0;rounded=1;absoluteArcSize=1;arcSize=9;fillColor=#ffffff;strokeWidth=3.8;container=1;pointerEvents=0;collapsible=0;recursiveResize=0;lucidId=jaq3g7JL.Gqc;" vertex="1" parent="1">
          <mxGeometry x="150" y="585" width="1290" height="225" as="geometry" />
        </mxCell>
        <mxCell id="wksmj878DORmFLcRhz3W-22" value="" style="html=1;overflow=block;blockSpacing=1;whiteSpace=wrap;shape=image;fontSize=13;spacing=3.8;strokeColor=none;strokeOpacity=100;strokeWidth=0;image=https://images.lucid.app/images/d18f7600-940a-411f-9454-8fd9ce303541/content;imageAspect=0;lucidId=JLq3bl2WBdjs;" vertex="1" parent="wksmj878DORmFLcRhz3W-1">
          <mxGeometry x="594" y="75" width="96" height="96" as="geometry" />
        </mxCell>
        <mxCell id="wksmj878DORmFLcRhz3W-2" value="Optum On-Perm " style="html=1;overflow=block;blockSpacing=1;whiteSpace=wrap;fontSize=20;fontStyle=1;align=left;spacing=0;strokeColor=#7d8998;strokeOpacity=100;fillOpacity=100;rounded=1;absoluteArcSize=1;arcSize=9;fillColor=#dfe3e8;strokeWidth=3.8;container=1;pointerEvents=0;collapsible=0;recursiveResize=0;lucidId=Yaq3nLEiLu0j;" vertex="1" parent="1">
          <mxGeometry x="150" y="851" width="620" height="229" as="geometry" />
        </mxCell>
        <mxCell id="wksmj878DORmFLcRhz3W-3" value="Azure&#xa;Cloud" style="html=1;overflow=block;blockSpacing=1;whiteSpace=wrap;fontSize=16.7;fontStyle=1;spacing=0;strokeColor=#0e76d4;strokeOpacity=100;fillOpacity=0;rounded=1;absoluteArcSize=1;arcSize=6;fillColor=#ffffff;strokeWidth=3;container=1;pointerEvents=0;collapsible=0;recursiveResize=0;lucidId=8dq31dOceO6z;" vertex="1" parent="1">
          <mxGeometry x="150" y="-390" width="1290" height="810" as="geometry" />
        </mxCell>
        <mxCell id="wksmj878DORmFLcRhz3W-32" value="DNS Zones" style="overflow=block;blockSpacing=1;whiteSpace=wrap;image;aspect=fixed;html=1;points=[];align=center;verticalAlign=top;image=img/lib/mscae/DNS.svg;fontSize=16.7;spacing=0;strokeColor=#3a414a;strokeOpacity=100;rounded=1;absoluteArcSize=1;arcSize=9;fillColor=#0072C6;strokeWidth=3;lucidId=63q3o.w0hAVj;labelBackgroundColor=none;" vertex="1" parent="wksmj878DORmFLcRhz3W-3">
          <mxGeometry x="630" y="120" width="60" height="60" as="geometry" />
        </mxCell>
        <mxCell id="wksmj878DORmFLcRhz3W-4" value="Virtual Network (us-central)" style="html=1;overflow=block;blockSpacing=1;whiteSpace=wrap;fontSize=16.7;spacing=0;strokeColor=#0e76d4;strokeOpacity=100;fillOpacity=0;rounded=1;absoluteArcSize=1;arcSize=9;fillColor=#ffffff;dashed=1;fixDash=1;dashPattern=1 2;strokeWidth=2.3;container=1;pointerEvents=0;collapsible=0;recursiveResize=0;lucidId=Kdq3RNQTjKE3;" vertex="1" parent="1">
          <mxGeometry x="210" y="-120" width="630" height="480" as="geometry" />
        </mxCell>
        <mxCell id="wksmj878DORmFLcRhz3W-5" value="BOSS Subscription" style="html=1;overflow=block;blockSpacing=1;whiteSpace=wrap;fontSize=16.7;spacing=0;strokeColor=#0e76d4;strokeOpacity=100;fillOpacity=0;rounded=1;absoluteArcSize=1;arcSize=6;fillColor=#ffffff;strokeWidth=3;container=1;pointerEvents=0;collapsible=0;recursiveResize=0;lucidId=eeq38csVDpK0;" vertex="1" parent="1">
          <mxGeometry x="180" y="-165" width="1230" height="555" as="geometry" />
        </mxCell>
        <mxCell id="wksmj878DORmFLcRhz3W-6" value="Subnet with NSG" style="html=1;overflow=block;blockSpacing=1;whiteSpace=wrap;fontSize=16.7;spacing=0;strokeColor=#bfbfbf;strokeOpacity=100;fillOpacity=100;rounded=1;absoluteArcSize=1;arcSize=9;fillColor=#f0f0f0;strokeWidth=3;container=1;pointerEvents=0;collapsible=0;recursiveResize=0;lucidId=Wdq3tbA-r.ip;" vertex="1" parent="1">
          <mxGeometry x="240" y="-60" width="570" height="390" as="geometry" />
        </mxCell>
        <mxCell id="wksmj878DORmFLcRhz3W-72" value="Oracle FarSync" style="overflow=block;blockSpacing=1;whiteSpace=wrap;image;aspect=fixed;html=1;points=[];align=center;verticalAlign=top;image=img/lib/mscae/Virtual_Machine.svg;fontSize=16.7;spacing=0;strokeColor=#3a414a;strokeOpacity=100;rounded=1;absoluteArcSize=1;arcSize=9;fillColor=#59B4D9;strokeWidth=3;lucidId=Tsr3_Pi7dMCo;imageBackground=none;labelBackgroundColor=none;" vertex="1" parent="wksmj878DORmFLcRhz3W-6">
          <mxGeometry x="492" y="210" width="65" height="60" as="geometry" />
        </mxCell>
        <mxCell id="wksmj878DORmFLcRhz3W-7" value="OKNaaS" style="html=1;overflow=block;blockSpacing=1;whiteSpace=wrap;fontSize=16.7;spacing=0;strokeColor=#dedede;strokeOpacity=100;fillOpacity=100;rounded=1;absoluteArcSize=1;arcSize=9;fillColor=#fafafa;strokeWidth=3;container=1;pointerEvents=0;collapsible=0;recursiveResize=0;lucidId=.eq35hLKsNww;align=left;verticalAlign=top;" vertex="1" parent="1">
          <mxGeometry x="420" width="240" height="300" as="geometry" />
        </mxCell>
        <mxCell id="wksmj878DORmFLcRhz3W-82" value="UI" style="aspect=fixed;sketch=0;html=1;dashed=0;whitespace=wrap;verticalLabelPosition=bottom;verticalAlign=top;fillColor=#2875E2;strokeColor=#ffffff;points=[[0.005,0.63,0],[0.1,0.2,0],[0.9,0.2,0],[0.5,0,0],[0.995,0.63,0],[0.72,0.99,0],[0.5,1,0],[0.28,0.99,0]];shape=mxgraph.kubernetes.icon2;prIcon=ds" vertex="1" parent="wksmj878DORmFLcRhz3W-7">
          <mxGeometry x="110" y="40" width="50" height="48" as="geometry" />
        </mxCell>
        <mxCell id="wksmj878DORmFLcRhz3W-83" value="API" style="aspect=fixed;sketch=0;html=1;dashed=0;whitespace=wrap;verticalLabelPosition=bottom;verticalAlign=top;fillColor=#2875E2;strokeColor=#ffffff;points=[[0.005,0.63,0],[0.1,0.2,0],[0.9,0.2,0],[0.5,0,0],[0.995,0.63,0],[0.72,0.99,0],[0.5,1,0],[0.28,0.99,0]];shape=mxgraph.kubernetes.icon2;prIcon=ds" vertex="1" parent="wksmj878DORmFLcRhz3W-7">
          <mxGeometry x="40" y="120" width="50" height="48" as="geometry" />
        </mxCell>
        <mxCell id="wksmj878DORmFLcRhz3W-84" value="Services" style="aspect=fixed;sketch=0;html=1;dashed=0;whitespace=wrap;verticalLabelPosition=bottom;verticalAlign=top;fillColor=#2875E2;strokeColor=#ffffff;points=[[0.005,0.63,0],[0.1,0.2,0],[0.9,0.2,0],[0.5,0,0],[0.995,0.63,0],[0.72,0.99,0],[0.5,1,0],[0.28,0.99,0]];shape=mxgraph.kubernetes.icon2;prIcon=ds" vertex="1" parent="wksmj878DORmFLcRhz3W-7">
          <mxGeometry x="110" y="200" width="50" height="48" as="geometry" />
        </mxCell>
        <mxCell id="wksmj878DORmFLcRhz3W-8" value="Virtual Network (us-west)" style="html=1;overflow=block;blockSpacing=1;whiteSpace=wrap;fontSize=16.7;spacing=0;strokeColor=#0e76d4;strokeOpacity=100;fillOpacity=0;rounded=1;absoluteArcSize=1;arcSize=9;fillColor=#ffffff;dashed=1;fixDash=1;dashPattern=1 2;strokeWidth=2.3;container=1;pointerEvents=0;collapsible=0;recursiveResize=0;lucidId=jhq3dJtDgXgr;" vertex="1" parent="1">
          <mxGeometry x="870" y="-120" width="510" height="480" as="geometry" />
        </mxCell>
        <mxCell id="wksmj878DORmFLcRhz3W-9" value="Subnet with NSG" style="html=1;overflow=block;blockSpacing=1;whiteSpace=wrap;fontSize=16.7;spacing=0;strokeColor=#bfbfbf;strokeOpacity=100;fillOpacity=100;rounded=1;absoluteArcSize=1;arcSize=9;fillColor=#f0f0f0;strokeWidth=3;container=1;pointerEvents=0;collapsible=0;recursiveResize=0;lucidId=DCq31KgvMa4e;" vertex="1" parent="1">
          <mxGeometry x="900" y="-60" width="450" height="390" as="geometry" />
        </mxCell>
        <mxCell id="wksmj878DORmFLcRhz3W-10" value="OKNaaS" style="html=1;overflow=block;blockSpacing=1;whiteSpace=wrap;fontSize=16.7;spacing=0;strokeColor=#dedede;strokeOpacity=100;fillOpacity=100;rounded=1;absoluteArcSize=1;arcSize=9;fillColor=#fafafa;strokeWidth=3;container=1;pointerEvents=0;collapsible=0;recursiveResize=0;lucidId=cDq3w1FCXT3s;align=left;verticalAlign=top;" vertex="1" parent="1">
          <mxGeometry x="930" width="240" height="300" as="geometry" />
        </mxCell>
        <mxCell id="wksmj878DORmFLcRhz3W-85" value="UI" style="aspect=fixed;sketch=0;html=1;dashed=0;whitespace=wrap;verticalLabelPosition=bottom;verticalAlign=top;fillColor=#2875E2;strokeColor=#ffffff;points=[[0.005,0.63,0],[0.1,0.2,0],[0.9,0.2,0],[0.5,0,0],[0.995,0.63,0],[0.72,0.99,0],[0.5,1,0],[0.28,0.99,0]];shape=mxgraph.kubernetes.icon2;prIcon=ds" vertex="1" parent="wksmj878DORmFLcRhz3W-10">
          <mxGeometry x="115" y="40" width="50" height="48" as="geometry" />
        </mxCell>
        <mxCell id="wksmj878DORmFLcRhz3W-86" value="API" style="aspect=fixed;sketch=0;html=1;dashed=0;whitespace=wrap;verticalLabelPosition=bottom;verticalAlign=top;fillColor=#2875E2;strokeColor=#ffffff;points=[[0.005,0.63,0],[0.1,0.2,0],[0.9,0.2,0],[0.5,0,0],[0.995,0.63,0],[0.72,0.99,0],[0.5,1,0],[0.28,0.99,0]];shape=mxgraph.kubernetes.icon2;prIcon=ds" vertex="1" parent="wksmj878DORmFLcRhz3W-10">
          <mxGeometry x="45" y="120" width="50" height="48" as="geometry" />
        </mxCell>
        <mxCell id="wksmj878DORmFLcRhz3W-87" value="Services" style="aspect=fixed;sketch=0;html=1;dashed=0;whitespace=wrap;verticalLabelPosition=bottom;verticalAlign=top;fillColor=#2875E2;strokeColor=#ffffff;points=[[0.005,0.63,0],[0.1,0.2,0],[0.9,0.2,0],[0.5,0,0],[0.995,0.63,0],[0.72,0.99,0],[0.5,1,0],[0.28,0.99,0]];shape=mxgraph.kubernetes.icon2;prIcon=ds" vertex="1" parent="wksmj878DORmFLcRhz3W-10">
          <mxGeometry x="115" y="200" width="50" height="48" as="geometry" />
        </mxCell>
        <mxCell id="wksmj878DORmFLcRhz3W-11" value="Cloud Environments" style="html=1;overflow=block;blockSpacing=1;whiteSpace=wrap;fontSize=20;fontStyle=1;align=left;spacing=0;strokeColor=#7d8998;strokeOpacity=100;fillOpacity=100;rounded=1;absoluteArcSize=1;arcSize=9;fillColor=#ced4db;strokeWidth=3.8;container=1;pointerEvents=0;collapsible=0;recursiveResize=0;lucidId=0aD42SKvwCIA;" vertex="1" parent="1">
          <mxGeometry x="825" y="851" width="615" height="229" as="geometry" />
        </mxCell>
        <mxCell id="wksmj878DORmFLcRhz3W-12" value="Load Balancer" style="overflow=block;blockSpacing=1;whiteSpace=wrap;image;aspect=fixed;html=1;points=[];align=center;verticalAlign=top;image=img/lib/mscae/Load_Balancer_feature.svg;fontSize=13;spacing=0;strokeColor=#3a414a;strokeOpacity=100;rounded=1;absoluteArcSize=1;arcSize=9;fillColor=#7FBA00;strokeWidth=3;lucidId=Ncq3PoqUxEJ0;labelBackgroundColor=none;" vertex="1" parent="1">
          <mxGeometry x="495" y="-112" width="52" height="52" as="geometry" />
        </mxCell>
        <mxCell id="wksmj878DORmFLcRhz3W-13" value="Batch Jobs" style="overflow=block;blockSpacing=1;whiteSpace=wrap;image;aspect=fixed;html=1;points=[];align=center;verticalAlign=top;image=img/lib/mscae/Virtual_Machine.svg;fontSize=16.7;spacing=0;strokeColor=#3a414a;strokeOpacity=100;rounded=1;absoluteArcSize=1;arcSize=9;fillColor=#59B4D9;strokeWidth=3;lucidId=kdq3.MRqSV6y;labelBackgroundColor=none;" vertex="1" parent="1">
          <mxGeometry x="285" width="65" height="60" as="geometry" />
        </mxCell>
        <mxCell id="wksmj878DORmFLcRhz3W-16" value="Batch Jobs" style="overflow=block;blockSpacing=1;whiteSpace=wrap;image;aspect=fixed;html=1;points=[];align=center;verticalAlign=top;image=img/lib/mscae/Virtual_Machine.svg;fontSize=16.7;spacing=0;strokeColor=#3a414a;strokeOpacity=100;rounded=1;absoluteArcSize=1;arcSize=9;fillColor=#59B4D9;strokeWidth=3;lucidId=YEq3Q6cMsEeL;labelBackgroundColor=none;" vertex="1" parent="1">
          <mxGeometry x="1230" width="65" height="60" as="geometry" />
        </mxCell>
        <mxCell id="wksmj878DORmFLcRhz3W-17" value="Load Balancer" style="overflow=block;blockSpacing=1;whiteSpace=wrap;image;aspect=fixed;html=1;points=[];align=center;verticalAlign=top;image=img/lib/mscae/Load_Balancer_feature.svg;fontSize=13;spacing=0;strokeColor=#3a414a;strokeOpacity=100;rounded=1;absoluteArcSize=1;arcSize=9;fillColor=#7FBA00;strokeWidth=3;lucidId=xGq3JzKcN6Wd;labelBackgroundColor=none;" vertex="1" parent="1">
          <mxGeometry x="1188" y="-112" width="52" height="52" as="geometry" />
        </mxCell>
        <mxCell id="wksmj878DORmFLcRhz3W-23" value="" style="html=1;jettySize=18;whiteSpace=wrap;fontSize=13;strokeColor=#ba23f6;strokeOpacity=100;strokeWidth=3;rounded=1;arcSize=12;edgeStyle=orthogonalEdgeStyle;startArrow=none;endArrow=block;endFill=1;exitX=0.5;exitY=1;exitPerimeter=0;entryX=0.516;entryY=0.148;entryPerimeter=0;lucidId=EMq3fhKff67c;" edge="1" parent="1" source="wksmj878DORmFLcRhz3W-70" target="wksmj878DORmFLcRhz3W-22">
          <mxGeometry width="100" height="100" relative="1" as="geometry">
            <Array as="points">
              <mxPoint x="317" y="480" />
              <mxPoint x="793" y="480" />
            </Array>
          </mxGeometry>
        </mxCell>
        <mxCell id="wksmj878DORmFLcRhz3W-24" value="CDC" style="text;html=1;resizable=0;labelBackgroundColor=default;align=center;verticalAlign=middle;fontStyle=1;fontColor=#333333;fontSize=13.3;" vertex="1" parent="wksmj878DORmFLcRhz3W-23">
          <mxGeometry x="-0.3081024504175668" relative="1" as="geometry">
            <mxPoint x="-119" y="-125" as="offset" />
          </mxGeometry>
        </mxCell>
        <mxCell id="wksmj878DORmFLcRhz3W-25" value="" style="html=1;jettySize=18;whiteSpace=wrap;fontSize=13;strokeColor=#cc4e00;strokeOpacity=100;strokeWidth=3;rounded=1;arcSize=12;edgeStyle=orthogonalEdgeStyle;startArrow=none;endArrow=block;endFill=1;exitX=0.5;exitY=1;exitPerimeter=0;entryX=0.516;entryY=0.171;entryPerimeter=0;lucidId=3Mq3pSqhqD9m;" edge="1" parent="1" source="wksmj878DORmFLcRhz3W-71" target="wksmj878DORmFLcRhz3W-22">
          <mxGeometry width="100" height="100" relative="1" as="geometry">
            <Array as="points">
              <mxPoint x="1263" y="480" />
              <mxPoint x="793" y="480" />
            </Array>
          </mxGeometry>
        </mxCell>
        <mxCell id="wksmj878DORmFLcRhz3W-26" value="CDC" style="text;html=1;resizable=0;labelBackgroundColor=default;align=center;verticalAlign=middle;fontStyle=1;fontColor=#333333;fontSize=13.3;" vertex="1" parent="wksmj878DORmFLcRhz3W-25">
          <mxGeometry x="-0.2965824891428507" relative="1" as="geometry">
            <mxPoint x="130" y="-145" as="offset" />
          </mxGeometry>
        </mxCell>
        <mxCell id="wksmj878DORmFLcRhz3W-27" value="" style="html=1;jettySize=18;whiteSpace=wrap;fontSize=13;strokeColor=#3a414a;strokeOpacity=100;strokeWidth=3;rounded=1;arcSize=12;edgeStyle=orthogonalEdgeStyle;startArrow=block;startFill=1;endArrow=block;endFill=1;exitX=1.006;exitY=0.6;exitPerimeter=0;entryX=0;entryY=0.5;entryPerimeter=0;lucidId=KPq3cRf1LaWE;" edge="1" parent="1" source="wksmj878DORmFLcRhz3W-10" target="wksmj878DORmFLcRhz3W-71">
          <mxGeometry width="100" height="100" relative="1" as="geometry">
            <Array as="points" />
          </mxGeometry>
        </mxCell>
        <mxCell id="wksmj878DORmFLcRhz3W-28" value="" style="html=1;jettySize=18;whiteSpace=wrap;fontSize=13;strokeColor=#3a414a;strokeOpacity=100;strokeWidth=3;rounded=1;arcSize=12;edgeStyle=orthogonalEdgeStyle;startArrow=block;startFill=1;endArrow=block;endFill=1;exitX=-0.006;exitY=0.6;exitPerimeter=0;entryX=1;entryY=0.5;entryPerimeter=0;lucidId=tQq3J8HJlOg9;" edge="1" parent="1" source="wksmj878DORmFLcRhz3W-7" target="wksmj878DORmFLcRhz3W-70">
          <mxGeometry width="100" height="100" relative="1" as="geometry">
            <Array as="points" />
          </mxGeometry>
        </mxCell>
        <mxCell id="wksmj878DORmFLcRhz3W-29" value="" style="html=1;jettySize=18;whiteSpace=wrap;fontSize=13;strokeColor=#3a414a;strokeOpacity=100;strokeWidth=3;rounded=1;arcSize=12;edgeStyle=orthogonalEdgeStyle;startArrow=block;startFill=1;endArrow=block;endFill=1;exitX=0.5;exitY=1;exitPerimeter=0;entryX=0.5;entryY=0;entryPerimeter=0;lucidId=4Qq3I8n1h0mu;" edge="1" parent="1" source="wksmj878DORmFLcRhz3W-16" target="wksmj878DORmFLcRhz3W-71">
          <mxGeometry width="100" height="100" relative="1" as="geometry">
            <Array as="points" />
          </mxGeometry>
        </mxCell>
        <mxCell id="wksmj878DORmFLcRhz3W-30" value="" style="html=1;jettySize=18;whiteSpace=wrap;fontSize=13;strokeColor=#3a414a;strokeOpacity=100;strokeWidth=3;rounded=1;arcSize=12;edgeStyle=orthogonalEdgeStyle;startArrow=block;startFill=1;endArrow=block;endFill=1;exitX=0.5;exitY=1;exitPerimeter=0;entryX=0.5;entryY=0;entryPerimeter=0;lucidId=aRq3527NV5TT;" edge="1" parent="1" source="wksmj878DORmFLcRhz3W-13" target="wksmj878DORmFLcRhz3W-70">
          <mxGeometry width="100" height="100" relative="1" as="geometry">
            <Array as="points" />
          </mxGeometry>
        </mxCell>
        <mxCell id="wksmj878DORmFLcRhz3W-33" value="Front Doors" style="html=1;overflow=block;blockSpacing=1;whiteSpace=wrap;fontSize=16.7;spacing=0;strokeColor=#3a414a;strokeOpacity=100;rounded=1;absoluteArcSize=1;arcSize=9;fillColor=#50e6ff;strokeWidth=3;lucidId=p4q3N5QW85ct;" vertex="1" parent="1">
          <mxGeometry x="776" y="-360" width="68" height="60" as="geometry" />
        </mxCell>
        <mxCell id="wksmj878DORmFLcRhz3W-34" value="WAF" style="html=1;overflow=block;blockSpacing=1;whiteSpace=wrap;fontSize=16.7;spacing=0;strokeColor=#3a414a;strokeOpacity=100;rounded=1;absoluteArcSize=1;arcSize=9;fillColor=#83b9f9;strokeWidth=3;lucidId=M4q3b9_0SpKI;" vertex="1" parent="1">
          <mxGeometry x="945" y="-360" width="60" height="60" as="geometry" />
        </mxCell>
        <mxCell id="wksmj878DORmFLcRhz3W-35" value="" style="html=1;jettySize=18;whiteSpace=wrap;fontSize=13;strokeColor=#3a414a;strokeOpacity=100;strokeWidth=3;rounded=1;arcSize=12;edgeStyle=orthogonalEdgeStyle;startArrow=none;endArrow=block;endFill=1;exitX=0.5;exitY=0.999;exitPerimeter=0;entryX=0.5;entryY=0;entryPerimeter=0;lucidId=54q3e94CGZvu;" edge="1" parent="1" source="wksmj878DORmFLcRhz3W-33" target="wksmj878DORmFLcRhz3W-32">
          <mxGeometry width="100" height="100" relative="1" as="geometry">
            <Array as="points" />
          </mxGeometry>
        </mxCell>
        <mxCell id="wksmj878DORmFLcRhz3W-36" value="" style="html=1;jettySize=18;whiteSpace=wrap;fontSize=13;strokeColor=#3a414a;strokeOpacity=100;strokeWidth=3;rounded=1;arcSize=12;edgeStyle=orthogonalEdgeStyle;startArrow=none;endArrow=block;endFill=1;exitX=0;exitY=0.5;exitPerimeter=0;entryX=0.5;entryY=0;entryPerimeter=0;lucidId=y5q3_q3nrDlt;" edge="1" parent="1" source="wksmj878DORmFLcRhz3W-32" target="wksmj878DORmFLcRhz3W-12">
          <mxGeometry width="100" height="100" relative="1" as="geometry">
            <Array as="points" />
          </mxGeometry>
        </mxCell>
        <mxCell id="wksmj878DORmFLcRhz3W-37" value="" style="html=1;jettySize=18;whiteSpace=wrap;fontSize=13;strokeColor=#3a414a;strokeOpacity=100;dashed=1;fixDash=1;strokeWidth=3;rounded=1;arcSize=12;edgeStyle=orthogonalEdgeStyle;startArrow=none;endArrow=block;endFill=1;exitX=1;exitY=0.5;exitPerimeter=0;entryX=0.5;entryY=0;entryPerimeter=0;lucidId=Y5q3qu1nCl24;" edge="1" parent="1" source="wksmj878DORmFLcRhz3W-32" target="wksmj878DORmFLcRhz3W-17">
          <mxGeometry width="100" height="100" relative="1" as="geometry">
            <Array as="points" />
          </mxGeometry>
        </mxCell>
        <mxCell id="wksmj878DORmFLcRhz3W-38" value="" style="html=1;jettySize=18;whiteSpace=wrap;fontSize=13;strokeColor=#3a414a;strokeOpacity=100;strokeWidth=3;rounded=1;arcSize=12;edgeStyle=orthogonalEdgeStyle;startArrow=none;endArrow=block;endFill=1;exitX=0;exitY=0.5;exitPerimeter=0;entryX=0.878;entryY=-0.005;entryPerimeter=0;lucidId=i6q3YKQ7nB2c;" edge="1" parent="1" source="wksmj878DORmFLcRhz3W-17" target="wksmj878DORmFLcRhz3W-10">
          <mxGeometry width="100" height="100" relative="1" as="geometry">
            <Array as="points" />
          </mxGeometry>
        </mxCell>
        <mxCell id="wksmj878DORmFLcRhz3W-39" value="" style="html=1;jettySize=18;whiteSpace=wrap;fontSize=13;strokeColor=#3a414a;strokeOpacity=100;strokeWidth=3;rounded=1;arcSize=12;edgeStyle=orthogonalEdgeStyle;startArrow=none;endArrow=block;endFill=1;exitX=1;exitY=0.5;exitPerimeter=0;entryX=0.758;entryY=-0.005;entryPerimeter=0;lucidId=C6q3TkVhahsK;" edge="1" parent="1" source="wksmj878DORmFLcRhz3W-12" target="wksmj878DORmFLcRhz3W-7">
          <mxGeometry width="100" height="100" relative="1" as="geometry">
            <Array as="points" />
          </mxGeometry>
        </mxCell>
        <mxCell id="wksmj878DORmFLcRhz3W-40" value="" style="html=1;jettySize=18;whiteSpace=wrap;fontSize=13;strokeColor=#3a414a;strokeOpacity=100;dashed=1;fixDash=1;dashPattern=6 5;strokeWidth=3;rounded=1;arcSize=12;edgeStyle=orthogonalEdgeStyle;startArrow=none;endArrow=none;exitX=0.001;exitY=0.5;exitPerimeter=0;entryX=0.992;entryY=0.5;entryPerimeter=0;lucidId=C7q3vhfRoKk_;" edge="1" parent="1" source="wksmj878DORmFLcRhz3W-34" target="wksmj878DORmFLcRhz3W-33">
          <mxGeometry width="100" height="100" relative="1" as="geometry">
            <Array as="points" />
          </mxGeometry>
        </mxCell>
        <mxCell id="wksmj878DORmFLcRhz3W-41" value="" style="html=1;overflow=block;blockSpacing=1;whiteSpace=wrap;shape=image;fontSize=13;spacing=3.8;strokeColor=none;strokeOpacity=100;strokeWidth=0;image=https://images.lucid.app/images/768ae25f-7164-43eb-ac0d-e26827f2a157/content;imageAspect=0;lucidId=Z7q3vyM97Vjf;" vertex="1" parent="1">
          <mxGeometry x="757" y="-525" width="96" height="96" as="geometry" />
        </mxCell>
        <mxCell id="wksmj878DORmFLcRhz3W-42" value="" style="html=1;jettySize=18;whiteSpace=wrap;fontSize=13;strokeColor=#3a414a;strokeOpacity=100;strokeWidth=3;rounded=1;arcSize=12;edgeStyle=orthogonalEdgeStyle;startArrow=none;endArrow=block;endFill=1;exitX=0.5;exitY=0.922;exitPerimeter=0;entryX=0.421;entryY=0.016;entryPerimeter=0;lucidId=87q3EK6SnVVY;" edge="1" parent="1" source="wksmj878DORmFLcRhz3W-41" target="wksmj878DORmFLcRhz3W-33">
          <mxGeometry width="100" height="100" relative="1" as="geometry">
            <Array as="points" />
          </mxGeometry>
        </mxCell>
        <mxCell id="wksmj878DORmFLcRhz3W-43" value="" style="html=1;overflow=block;blockSpacing=1;whiteSpace=wrap;shape=image;fontSize=13;spacing=3.8;strokeColor=none;strokeOpacity=100;strokeWidth=0;image=https://images.lucid.app/images/09946e86-c14f-411c-85ea-af56e4686283/content;imageAspect=0;lucidId=M8q34PXFU5F_;" vertex="1" parent="1">
          <mxGeometry x="414" y="-645" width="96" height="96" as="geometry" />
        </mxCell>
        <mxCell id="wksmj878DORmFLcRhz3W-44" value="" style="html=1;overflow=block;blockSpacing=1;whiteSpace=wrap;shape=image;fontSize=13;spacing=3.8;strokeColor=none;strokeOpacity=100;strokeWidth=0;image=https://images.lucid.app/images/768ae25f-7164-43eb-ac0d-e26827f2a157/content;imageAspect=0;lucidId=M8q3p8HLCF3u;" vertex="1" parent="1">
          <mxGeometry x="192" y="-645" width="96" height="96" as="geometry" />
        </mxCell>
        <mxCell id="wksmj878DORmFLcRhz3W-45" value="" style="html=1;overflow=block;blockSpacing=1;whiteSpace=wrap;shape=image;fontSize=13;spacing=3.8;strokeColor=none;strokeOpacity=100;strokeWidth=0;image=https://images.lucid.app/images/5e60bde7-119e-4178-b386-b542897c1ef2/content;imageAspect=0;lucidId=g9q3dncQYn~Z;" vertex="1" parent="1">
          <mxGeometry x="574" y="-642" width="90" height="90" as="geometry" />
        </mxCell>
        <mxCell id="wksmj878DORmFLcRhz3W-46" value="" style="html=1;jettySize=18;whiteSpace=wrap;fontSize=13;strokeColor=#3a414a;strokeOpacity=100;strokeWidth=3;rounded=1;arcSize=12;edgeStyle=orthogonalEdgeStyle;startArrow=none;endArrow=block;endFill=1;exitX=0.863;exitY=0.5;exitPerimeter=0;entryX=0;entryY=0.5;entryPerimeter=0;lucidId=w9q3ukF7U0IZ;" edge="1" parent="1" source="wksmj878DORmFLcRhz3W-44" target="wksmj878DORmFLcRhz3W-43">
          <mxGeometry width="100" height="100" relative="1" as="geometry">
            <Array as="points" />
          </mxGeometry>
        </mxCell>
        <mxCell id="wksmj878DORmFLcRhz3W-47" value="" style="html=1;jettySize=18;whiteSpace=wrap;fontSize=13;strokeColor=#3a414a;strokeOpacity=100;strokeWidth=3;rounded=1;arcSize=12;edgeStyle=orthogonalEdgeStyle;startArrow=none;endArrow=block;endFill=1;exitX=1;exitY=0.5;exitPerimeter=0;entryX=0.356;entryY=0.5;entryPerimeter=0;lucidId=z9q32BAh47Ks;" edge="1" parent="1" source="wksmj878DORmFLcRhz3W-43" target="wksmj878DORmFLcRhz3W-45">
          <mxGeometry width="100" height="100" relative="1" as="geometry">
            <Array as="points" />
          </mxGeometry>
        </mxCell>
        <mxCell id="wksmj878DORmFLcRhz3W-48" value="" style="html=1;jettySize=18;whiteSpace=wrap;fontSize=13;strokeColor=#3a414a;strokeOpacity=100;strokeWidth=3;rounded=1;arcSize=12;edgeStyle=orthogonalEdgeStyle;startArrow=none;endArrow=block;endFill=1;exitX=0.5;exitY=0.932;exitPerimeter=0;entryX=0.208;entryY=-0.005;entryPerimeter=0;lucidId=I9q3L5p7t4u5;" edge="1" parent="1" source="wksmj878DORmFLcRhz3W-45" target="wksmj878DORmFLcRhz3W-7">
          <mxGeometry width="100" height="100" relative="1" as="geometry">
            <Array as="points" />
          </mxGeometry>
        </mxCell>
        <mxCell id="wksmj878DORmFLcRhz3W-49" value="Deployment" style="text;html=1;resizable=0;labelBackgroundColor=default;align=center;verticalAlign=middle;fontStyle=1;fontColor=#333333;fontSize=16.7;" vertex="1" parent="wksmj878DORmFLcRhz3W-48">
          <mxGeometry x="-0.9092997696188455" relative="1" as="geometry">
            <mxPoint x="-59" y="8" as="offset" />
          </mxGeometry>
        </mxCell>
        <mxCell id="wksmj878DORmFLcRhz3W-50" value="" style="html=1;jettySize=18;whiteSpace=wrap;fontSize=13;strokeColor=#3a414a;strokeOpacity=100;dashed=1;fixDash=1;strokeWidth=3;rounded=1;arcSize=12;edgeStyle=orthogonalEdgeStyle;startArrow=none;endArrow=block;endFill=1;exitX=0.932;exitY=0.5;exitPerimeter=0;entryX=0.5;entryY=-0.005;entryPerimeter=0;lucidId=X9q3vMz90D5B;" edge="1" parent="1" source="wksmj878DORmFLcRhz3W-45" target="wksmj878DORmFLcRhz3W-10">
          <mxGeometry width="100" height="100" relative="1" as="geometry">
            <Array as="points" />
          </mxGeometry>
        </mxCell>
        <mxCell id="wksmj878DORmFLcRhz3W-51" value="DR Deployment" style="text;html=1;resizable=0;labelBackgroundColor=default;align=center;verticalAlign=middle;fontStyle=1;fontColor=#333333;fontSize=16.7;" vertex="1" parent="wksmj878DORmFLcRhz3W-50">
          <mxGeometry x="-0.8608389211890511" relative="1" as="geometry">
            <mxPoint x="53" y="-23" as="offset" />
          </mxGeometry>
        </mxCell>
        <mxCell id="wksmj878DORmFLcRhz3W-52" value="Internal Users" style="html=1;overflow=block;blockSpacing=1;whiteSpace=wrap;fontSize=16.7;spacing=0;strokeColor=#unset;rounded=1;absoluteArcSize=1;arcSize=9;fillColor=none;strokeWidth=NaN;lucidId=h8q3S.4zb3D2;" vertex="1" parent="1">
          <mxGeometry x="825" y="-495" width="180" height="45" as="geometry" />
        </mxCell>
        <mxCell id="wksmj878DORmFLcRhz3W-53" value="BOSS Team" style="html=1;overflow=block;blockSpacing=1;whiteSpace=wrap;fontSize=16.7;spacing=0;strokeColor=#unset;rounded=1;absoluteArcSize=1;arcSize=9;fillColor=none;strokeWidth=NaN;lucidId=R-q32MIMpVP6;" vertex="1" parent="1">
          <mxGeometry x="150" y="-540" width="180" height="45" as="geometry" />
        </mxCell>
        <mxCell id="wksmj878DORmFLcRhz3W-55" value="" style="html=1;jettySize=18;whiteSpace=wrap;fontSize=13;strokeColor=#54c45e;strokeOpacity=100;strokeWidth=3;rounded=1;arcSize=12;edgeStyle=orthogonalEdgeStyle;startArrow=none;endArrow=block;endFill=1;entryX=0;entryY=0.5;entryPerimeter=0;lucidId=7.q3A4OD778T;" edge="1" parent="1" target="wksmj878DORmFLcRhz3W-72">
          <mxGeometry width="100" height="100" relative="1" as="geometry">
            <Array as="points">
              <mxPoint x="360" y="310" />
              <mxPoint x="705" y="310" />
            </Array>
            <mxPoint x="360" y="210" as="sourcePoint" />
          </mxGeometry>
        </mxCell>
        <mxCell id="wksmj878DORmFLcRhz3W-56" value="A" style="html=1;overflow=block;blockSpacing=1;whiteSpace=wrap;ellipse;fontSize=16.7;spacing=3.8;strokeColor=#e81313;strokeOpacity=100;fillOpacity=100;rounded=1;absoluteArcSize=1;arcSize=9;fillColor=#fcce14;strokeWidth=3;lucidId=qbr3bJhY-1MZ;" vertex="1" parent="1">
          <mxGeometry x="672" y="-564" width="60" height="60" as="geometry" />
        </mxCell>
        <mxCell id="wksmj878DORmFLcRhz3W-57" value="B" style="html=1;overflow=block;blockSpacing=1;whiteSpace=wrap;ellipse;fontSize=16.7;spacing=3.8;strokeColor=#e81313;strokeOpacity=100;fillOpacity=100;rounded=1;absoluteArcSize=1;arcSize=9;fillColor=#fcce14;strokeWidth=3;lucidId=Kbr3~AQNgbPp;" vertex="1" parent="1">
          <mxGeometry x="770" y="-150" width="60" height="60" as="geometry" />
        </mxCell>
        <mxCell id="wksmj878DORmFLcRhz3W-58" value="C" style="html=1;overflow=block;blockSpacing=1;whiteSpace=wrap;ellipse;fontSize=16.7;spacing=3.8;strokeColor=#e81313;strokeOpacity=100;fillOpacity=100;rounded=1;absoluteArcSize=1;arcSize=9;fillColor=#fcce14;strokeWidth=3;lucidId=Kcr35OBm1WCN;" vertex="1" parent="1">
          <mxGeometry x="260" y="480" width="60" height="60" as="geometry" />
        </mxCell>
        <mxCell id="wksmj878DORmFLcRhz3W-59" value="C" style="html=1;overflow=block;blockSpacing=1;whiteSpace=wrap;ellipse;fontSize=16.7;spacing=3.8;strokeColor=#e81313;strokeOpacity=100;fillOpacity=100;rounded=1;absoluteArcSize=1;arcSize=9;fillColor=#fcce14;strokeWidth=3;lucidId=9er3PrTkqsRu;" vertex="1" parent="1">
          <mxGeometry x="1270" y="480" width="60" height="60" as="geometry" />
        </mxCell>
        <mxCell id="wksmj878DORmFLcRhz3W-60" value="" style="group;dropTarget=0;pointerEvents=0;html=1;container=1;collapsible=0;" vertex="1" parent="1">
          <mxGeometry x="120" y="1125" width="1350" height="345" as="geometry" />
        </mxCell>
        <mxCell id="wksmj878DORmFLcRhz3W-61" value="A" style="html=1;overflow=block;blockSpacing=1;whiteSpace=wrap;ellipse;fontSize=16.7;spacing=3.8;strokeColor=#e81313;strokeOpacity=100;fillOpacity=100;rounded=1;absoluteArcSize=1;arcSize=9;fillColor=#fcce14;strokeWidth=3;lucidId=Vgr3~Bwqj3-G;" vertex="1" parent="wksmj878DORmFLcRhz3W-60">
          <mxGeometry x="30" y="30" width="60" height="60" as="geometry" />
        </mxCell>
        <mxCell id="wksmj878DORmFLcRhz3W-62" value="B" style="html=1;overflow=block;blockSpacing=1;whiteSpace=wrap;ellipse;fontSize=16.7;spacing=3.8;strokeColor=#e81313;strokeOpacity=100;fillOpacity=100;rounded=1;absoluteArcSize=1;arcSize=9;fillColor=#fcce14;strokeWidth=3;lucidId=1gr3J2~njfMt;" vertex="1" parent="wksmj878DORmFLcRhz3W-60">
          <mxGeometry x="30" y="143" width="60" height="60" as="geometry" />
        </mxCell>
        <mxCell id="wksmj878DORmFLcRhz3W-63" value="C" style="html=1;overflow=block;blockSpacing=1;whiteSpace=wrap;ellipse;fontSize=16.7;spacing=3.8;strokeColor=#e81313;strokeOpacity=100;fillOpacity=100;rounded=1;absoluteArcSize=1;arcSize=9;fillColor=#fcce14;strokeWidth=3;lucidId=7gr3CwZUMNxM;" vertex="1" parent="wksmj878DORmFLcRhz3W-60">
          <mxGeometry x="30" y="255" width="60" height="60" as="geometry" />
        </mxCell>
        <mxCell id="wksmj878DORmFLcRhz3W-64" value="" style="shape=partialRectangle;html=1;whiteSpace=wrap;connectable=0;fillColor=#ffffff;strokeOpacity=100;verticalAlign=middle;spacing=3.8;strokeColor=#3a414a;rounded=1;absoluteArcSize=1;arcSize=9;strokeWidth=3;fontSize=13;align=left;" vertex="1" parent="wksmj878DORmFLcRhz3W-60">
          <mxGeometry width="120" height="115" as="geometry" />
        </mxCell>
        <mxCell id="wksmj878DORmFLcRhz3W-65" value="CI/CD deployments have been migrated to GitHub Actions workflows. Application containers are built and pushed to the Azure Container Registry (ACR). Deployments are then executed in both the primary and disaster recovery (DR) regions." style="shape=partialRectangle;html=1;whiteSpace=wrap;connectable=0;fillColor=#ffffff;strokeOpacity=100;verticalAlign=middle;spacing=3.8;strokeColor=#3a414a;rounded=1;absoluteArcSize=1;arcSize=9;strokeWidth=3;fontSize=23.3;align=left;" vertex="1" parent="wksmj878DORmFLcRhz3W-60">
          <mxGeometry x="120" width="1230" height="115" as="geometry" />
        </mxCell>
        <mxCell id="wksmj878DORmFLcRhz3W-66" value="" style="shape=partialRectangle;html=1;whiteSpace=wrap;connectable=0;fillColor=#ffffff;strokeOpacity=100;verticalAlign=middle;spacing=3.8;strokeColor=#3a414a;rounded=1;absoluteArcSize=1;arcSize=9;strokeWidth=3;fontSize=13;align=left;" vertex="1" parent="wksmj878DORmFLcRhz3W-60">
          <mxGeometry y="115" width="120" height="115" as="geometry" />
        </mxCell>
        <mxCell id="wksmj878DORmFLcRhz3W-67" value="The DR switchover is performed by updating the DNS configuration." style="shape=partialRectangle;html=1;whiteSpace=wrap;connectable=0;fillColor=#ffffff;strokeOpacity=100;verticalAlign=middle;spacing=3.8;strokeColor=#3a414a;rounded=1;absoluteArcSize=1;arcSize=9;strokeWidth=3;fontSize=23.3;align=left;" vertex="1" parent="wksmj878DORmFLcRhz3W-60">
          <mxGeometry x="120" y="115" width="1230" height="115" as="geometry" />
        </mxCell>
        <mxCell id="wksmj878DORmFLcRhz3W-68" value="" style="shape=partialRectangle;html=1;whiteSpace=wrap;connectable=0;fillColor=#ffffff;strokeOpacity=100;verticalAlign=middle;spacing=3.8;strokeColor=#3a414a;rounded=1;absoluteArcSize=1;arcSize=9;strokeWidth=3;fontSize=13;align=left;" vertex="1" parent="wksmj878DORmFLcRhz3W-60">
          <mxGeometry y="230" width="120" height="115" as="geometry" />
        </mxCell>
        <mxCell id="wksmj878DORmFLcRhz3W-69" value="CTC in both the primary and DR regions publishes database changes to Kafka in the on-premises CTC and ELR data centers, where they are consumed by downstream applications." style="shape=partialRectangle;html=1;whiteSpace=wrap;connectable=0;fillColor=#ffffff;strokeOpacity=100;verticalAlign=middle;spacing=3.8;strokeColor=#3a414a;rounded=1;absoluteArcSize=1;arcSize=9;strokeWidth=3;fontSize=23.3;align=left;" vertex="1" parent="wksmj878DORmFLcRhz3W-60">
          <mxGeometry x="120" y="230" width="1230" height="115" as="geometry" />
        </mxCell>
        <mxCell id="wksmj878DORmFLcRhz3W-70" value="Oracle (Primary)" style="overflow=block;blockSpacing=1;whiteSpace=wrap;image;aspect=fixed;html=1;points=[];align=center;verticalAlign=top;image=img/lib/mscae/Virtual_Machine.svg;fontSize=16.7;spacing=0;strokeColor=#3a414a;strokeOpacity=100;rounded=1;absoluteArcSize=1;arcSize=9;fillColor=#59B4D9;strokeWidth=3;lucidId=Qpr3EO_3mMgp;labelBackgroundColor=none;" vertex="1" parent="1">
          <mxGeometry x="285" y="150" width="65" height="60" as="geometry" />
        </mxCell>
        <mxCell id="wksmj878DORmFLcRhz3W-71" value="Oracle (DR)" style="overflow=block;blockSpacing=1;whiteSpace=wrap;image;aspect=fixed;html=1;points=[];align=center;verticalAlign=top;image=img/lib/mscae/Virtual_Machine.svg;fontSize=16.7;spacing=0;strokeColor=#3a414a;strokeOpacity=100;rounded=1;absoluteArcSize=1;arcSize=9;fillColor=#59B4D9;strokeWidth=3;lucidId=Fqr3l6YNsWJu;labelBackgroundColor=none;" vertex="1" parent="1">
          <mxGeometry x="1230" y="150" width="65" height="60" as="geometry" />
        </mxCell>
        <mxCell id="wksmj878DORmFLcRhz3W-73" value="Downstream Applications (Consumers)" style="html=1;overflow=block;blockSpacing=1;whiteSpace=wrap;fontSize=16.7;spacing=0;strokeColor=#3a414a;strokeOpacity=100;rounded=1;absoluteArcSize=1;arcSize=9;fillColor=#5d36ff;strokeWidth=1.5;lucidId=jbD4NrLS~J9N;" vertex="1" parent="1">
          <mxGeometry x="1005" y="915" width="90" height="80" as="geometry" />
        </mxCell>
        <mxCell id="wksmj878DORmFLcRhz3W-74" value="Downstream Applications (Consumers)" style="html=1;overflow=block;blockSpacing=1;whiteSpace=wrap;fontSize=16.7;spacing=0;strokeColor=#3a414a;strokeOpacity=100;rounded=1;absoluteArcSize=1;arcSize=9;fillColor=#5d36ff;strokeWidth=1.5;lucidId=tbD4KC7UPvYM;" vertex="1" parent="1">
          <mxGeometry x="1208" y="915" width="90" height="80" as="geometry" />
        </mxCell>
        <mxCell id="wksmj878DORmFLcRhz3W-75" value="Downstream Applications (Consumers)" style="html=1;overflow=block;blockSpacing=1;whiteSpace=wrap;fontSize=16.7;spacing=0;strokeColor=#3a414a;strokeOpacity=100;rounded=1;absoluteArcSize=1;arcSize=9;fillColor=#5d36ff;strokeWidth=1.5;lucidId=FbD4U0J3Uv1G;" vertex="1" parent="1">
          <mxGeometry x="344" y="915" width="90" height="80" as="geometry" />
        </mxCell>
        <mxCell id="wksmj878DORmFLcRhz3W-76" value="Downstream Applications (Consumers)" style="html=1;overflow=block;blockSpacing=1;whiteSpace=wrap;fontSize=16.7;spacing=0;strokeColor=#3a414a;strokeOpacity=100;rounded=1;absoluteArcSize=1;arcSize=9;fillColor=#5d36ff;strokeWidth=1.5;lucidId=FbD49-GqvFm9;" vertex="1" parent="1">
          <mxGeometry x="547" y="915" width="90" height="80" as="geometry" />
        </mxCell>
        <mxCell id="wksmj878DORmFLcRhz3W-77" value="" style="html=1;jettySize=18;whiteSpace=wrap;fontSize=13;strokeColor=#3a414a;strokeOpacity=100;strokeWidth=3;rounded=1;arcSize=12;edgeStyle=orthogonalEdgeStyle;startArrow=none;endArrow=block;endFill=1;exitX=0.517;exitY=0.82;exitPerimeter=0;entryX=0.5;entryY=0;entryPerimeter=0;lucidId=SbD4B5m84VEO;" edge="1" parent="1" source="wksmj878DORmFLcRhz3W-22" target="wksmj878DORmFLcRhz3W-75">
          <mxGeometry width="100" height="100" relative="1" as="geometry">
            <Array as="points" />
          </mxGeometry>
        </mxCell>
        <mxCell id="wksmj878DORmFLcRhz3W-78" value="" style="html=1;jettySize=18;whiteSpace=wrap;fontSize=13;strokeColor=#3a414a;strokeOpacity=100;strokeWidth=3;rounded=1;arcSize=12;edgeStyle=orthogonalEdgeStyle;startArrow=none;endArrow=block;endFill=1;exitX=0.517;exitY=0.82;exitPerimeter=0;entryX=0.5;entryY=0;entryPerimeter=0;lucidId=4bD4xVKB2Yf4;" edge="1" parent="1" source="wksmj878DORmFLcRhz3W-22" target="wksmj878DORmFLcRhz3W-76">
          <mxGeometry width="100" height="100" relative="1" as="geometry">
            <Array as="points" />
          </mxGeometry>
        </mxCell>
        <mxCell id="wksmj878DORmFLcRhz3W-79" value="" style="html=1;jettySize=18;whiteSpace=wrap;fontSize=13;strokeColor=#3a414a;strokeOpacity=100;strokeWidth=3;rounded=1;arcSize=12;edgeStyle=orthogonalEdgeStyle;startArrow=none;endArrow=block;endFill=1;exitX=0.517;exitY=0.82;exitPerimeter=0;entryX=0.5;entryY=0;entryPerimeter=0;lucidId=~bD4l~31YQ0A;" edge="1" parent="1" source="wksmj878DORmFLcRhz3W-22" target="wksmj878DORmFLcRhz3W-73">
          <mxGeometry width="100" height="100" relative="1" as="geometry">
            <Array as="points" />
          </mxGeometry>
        </mxCell>
        <mxCell id="wksmj878DORmFLcRhz3W-80" value="" style="html=1;jettySize=18;whiteSpace=wrap;fontSize=13;strokeColor=#3a414a;strokeOpacity=100;strokeWidth=3;rounded=1;arcSize=12;edgeStyle=orthogonalEdgeStyle;startArrow=none;endArrow=block;endFill=1;exitX=0.517;exitY=0.82;exitPerimeter=0;entryX=0.5;entryY=0;entryPerimeter=0;lucidId=jcD4K2fZiumz;" edge="1" parent="1" source="wksmj878DORmFLcRhz3W-22" target="wksmj878DORmFLcRhz3W-74">
          <mxGeometry width="100" height="100" relative="1" as="geometry">
            <Array as="points" />
          </mxGeometry>
        </mxCell>
        <mxCell id="wksmj878DORmFLcRhz3W-54" value="" style="html=1;jettySize=18;whiteSpace=wrap;fontSize=13;strokeColor=#54c45e;strokeOpacity=100;strokeWidth=3;rounded=1;arcSize=12;edgeStyle=orthogonalEdgeStyle;startArrow=block;startFill=1;endArrow=none;entryX=0.985;entryY=0.433;entryPerimeter=0;lucidId=m.q3x1qEhWL0;entryDx=0;entryDy=0;exitX=0.046;exitY=0.737;exitDx=0;exitDy=0;exitPerimeter=0;" edge="1" parent="1" target="wksmj878DORmFLcRhz3W-72" source="wksmj878DORmFLcRhz3W-71">
          <mxGeometry width="100" height="100" relative="1" as="geometry">
            <Array as="points">
              <mxPoint x="1200" y="194" />
              <mxPoint x="1200" y="310" />
              <mxPoint x="890" y="310" />
              <mxPoint x="890" y="176" />
            </Array>
            <mxPoint x="1242" y="355" as="sourcePoint" />
            <mxPoint x="797" y="330" as="targetPoint" />
          </mxGeometry>
        </mxCell>
        <mxCell id="wksmj878DORmFLcRhz3W-89" value="" style="image;aspect=fixed;html=1;points=[];align=center;fontSize=12;image=img/lib/azure2/networking/Virtual_WANs.svg;" vertex="1" parent="1">
          <mxGeometry x="763" y="440" width="65" height="64" as="geometry" />
        </mxCell>
      </root>
    </mxGraphModel>
  </diagram>
</mxfile>
